<mxfile host="app.diagrams.net" agent="Mozilla/5.0 (Macintosh; Intel Mac OS X 10_15_7) AppleWebKit/605.1.15 (KHTML, like Gecko) Version/18.0.1 Safari/605.1.15" version="24.8.4">
  <diagram id="C5RBs43oDa-KdzZeNtuy" name="Page-1">
    <mxGraphModel dx="826" dy="565" grid="1" gridSize="10" guides="1" tooltips="1" connect="1" arrows="1" fold="1" page="1" pageScale="1" pageWidth="827" pageHeight="1169" math="0" shadow="0">
      <root>
        <mxCell id="WIyWlLk6GJQsqaUBKTNV-0" />
        <mxCell id="WIyWlLk6GJQsqaUBKTNV-1" parent="WIyWlLk6GJQsqaUBKTNV-0" />
        <mxCell id="WIyWlLk6GJQsqaUBKTNV-3" value="Normal (HH:MM)" style="rounded=1;whiteSpace=wrap;html=1;fontSize=12;glass=0;strokeWidth=1;shadow=0;fillColor=#fff2cc;strokeColor=#d6b656;" parent="WIyWlLk6GJQsqaUBKTNV-1" vertex="1">
          <mxGeometry x="411" y="500" width="120" height="40" as="geometry" />
        </mxCell>
        <mxCell id="WIyWlLk6GJQsqaUBKTNV-7" value="Temperature" style="rounded=1;whiteSpace=wrap;html=1;fontSize=12;glass=0;strokeWidth=1;shadow=0;fillColor=#d5e8d4;strokeColor=#82b366;" parent="WIyWlLk6GJQsqaUBKTNV-1" vertex="1">
          <mxGeometry x="531" y="600" width="120" height="40" as="geometry" />
        </mxCell>
        <mxCell id="WIyWlLk6GJQsqaUBKTNV-12" value="Date" style="rounded=1;whiteSpace=wrap;html=1;fontSize=12;glass=0;strokeWidth=1;shadow=0;fillColor=#d5e8d4;strokeColor=#82b366;" parent="WIyWlLk6GJQsqaUBKTNV-1" vertex="1">
          <mxGeometry x="531" y="690" width="120" height="40" as="geometry" />
        </mxCell>
        <mxCell id="ZPV8zCerwzT6bf8s00EN-3" value="" style="rounded=0;html=1;jettySize=auto;orthogonalLoop=1;fontSize=11;endArrow=block;endFill=0;endSize=8;strokeWidth=1;shadow=0;labelBackgroundColor=none;edgeStyle=orthogonalEdgeStyle;" parent="WIyWlLk6GJQsqaUBKTNV-1" edge="1">
          <mxGeometry relative="1" as="geometry">
            <mxPoint x="590.66" y="640" as="sourcePoint" />
            <mxPoint x="590.66" y="690" as="targetPoint" />
          </mxGeometry>
        </mxCell>
        <mxCell id="ZPV8zCerwzT6bf8s00EN-4" value="S2 short" style="edgeLabel;html=1;align=center;verticalAlign=middle;resizable=0;points=[];fontStyle=1" parent="ZPV8zCerwzT6bf8s00EN-3" vertex="1" connectable="0">
          <mxGeometry x="-0.0483" relative="1" as="geometry">
            <mxPoint as="offset" />
          </mxGeometry>
        </mxCell>
        <mxCell id="ZPV8zCerwzT6bf8s00EN-5" value="" style="curved=1;endArrow=classic;html=1;rounded=0;entryX=1;entryY=0.5;entryDx=0;entryDy=0;exitX=1;exitY=0.5;exitDx=0;exitDy=0;" parent="WIyWlLk6GJQsqaUBKTNV-1" source="WIyWlLk6GJQsqaUBKTNV-12" target="WIyWlLk6GJQsqaUBKTNV-3" edge="1">
          <mxGeometry width="50" height="50" relative="1" as="geometry">
            <mxPoint x="561" y="720" as="sourcePoint" />
            <mxPoint x="531" y="480" as="targetPoint" />
            <Array as="points">
              <mxPoint x="780" y="700" />
              <mxPoint x="740" y="570" />
              <mxPoint x="620" y="530" />
            </Array>
          </mxGeometry>
        </mxCell>
        <mxCell id="ZPV8zCerwzT6bf8s00EN-11" value="&lt;b&gt;S2 short&lt;/b&gt;" style="edgeLabel;html=1;align=center;verticalAlign=middle;resizable=0;points=[];" parent="ZPV8zCerwzT6bf8s00EN-5" vertex="1" connectable="0">
          <mxGeometry x="-0.0718" y="7" relative="1" as="geometry">
            <mxPoint x="-29" y="47" as="offset" />
          </mxGeometry>
        </mxCell>
        <mxCell id="ZPV8zCerwzT6bf8s00EN-7" value="" style="curved=1;endArrow=classic;html=1;rounded=0;exitX=1;exitY=0.5;exitDx=0;exitDy=0;entryX=0.5;entryY=0;entryDx=0;entryDy=0;elbow=vertical;" parent="WIyWlLk6GJQsqaUBKTNV-1" source="WIyWlLk6GJQsqaUBKTNV-12" target="WIyWlLk6GJQsqaUBKTNV-12" edge="1">
          <mxGeometry width="50" height="50" relative="1" as="geometry">
            <mxPoint x="671" y="720" as="sourcePoint" />
            <mxPoint x="611" y="740" as="targetPoint" />
            <Array as="points">
              <mxPoint x="741" y="700" />
              <mxPoint x="670" y="640" />
            </Array>
          </mxGeometry>
        </mxCell>
        <mxCell id="ZPV8zCerwzT6bf8s00EN-10" value="S1 short&lt;div&gt;&lt;div&gt;(DD:MM -&amp;gt; MM:DD)&lt;/div&gt;&lt;/div&gt;" style="edgeLabel;html=1;align=center;verticalAlign=middle;resizable=0;points=[];fontStyle=1" parent="ZPV8zCerwzT6bf8s00EN-7" vertex="1" connectable="0">
          <mxGeometry x="0.1571" y="10" relative="1" as="geometry">
            <mxPoint x="8" y="-2" as="offset" />
          </mxGeometry>
        </mxCell>
        <mxCell id="ZPV8zCerwzT6bf8s00EN-12" value="Change day/month" style="rounded=1;whiteSpace=wrap;html=1;fontSize=12;glass=0;strokeWidth=1;shadow=0;" parent="WIyWlLk6GJQsqaUBKTNV-1" vertex="1">
          <mxGeometry x="610" y="783.7" width="120" height="40" as="geometry" />
        </mxCell>
        <mxCell id="ZPV8zCerwzT6bf8s00EN-15" value="Change month/day" style="rounded=1;whiteSpace=wrap;html=1;fontSize=12;glass=0;strokeWidth=1;shadow=0;" parent="WIyWlLk6GJQsqaUBKTNV-1" vertex="1">
          <mxGeometry x="610" y="863.7" width="120" height="40" as="geometry" />
        </mxCell>
        <mxCell id="ZPV8zCerwzT6bf8s00EN-16" value="" style="endArrow=classic;html=1;rounded=0;exitX=0.5;exitY=1;exitDx=0;exitDy=0;entryX=0.5;entryY=0;entryDx=0;entryDy=0;" parent="WIyWlLk6GJQsqaUBKTNV-1" source="ZPV8zCerwzT6bf8s00EN-12" target="ZPV8zCerwzT6bf8s00EN-15" edge="1">
          <mxGeometry width="50" height="50" relative="1" as="geometry">
            <mxPoint x="780" y="843.7" as="sourcePoint" />
            <mxPoint x="830" y="793.7" as="targetPoint" />
          </mxGeometry>
        </mxCell>
        <mxCell id="ZPV8zCerwzT6bf8s00EN-17" value="S2 short" style="edgeLabel;html=1;align=center;verticalAlign=middle;resizable=0;points=[];fontStyle=1" parent="ZPV8zCerwzT6bf8s00EN-16" vertex="1" connectable="0">
          <mxGeometry x="-0.2414" y="2" relative="1" as="geometry">
            <mxPoint as="offset" />
          </mxGeometry>
        </mxCell>
        <mxCell id="ZPV8zCerwzT6bf8s00EN-18" value="Change year" style="rounded=1;whiteSpace=wrap;html=1;fontSize=12;glass=0;strokeWidth=1;shadow=0;" parent="WIyWlLk6GJQsqaUBKTNV-1" vertex="1">
          <mxGeometry x="610" y="943.7" width="120" height="40" as="geometry" />
        </mxCell>
        <mxCell id="ZPV8zCerwzT6bf8s00EN-20" value="" style="endArrow=classic;html=1;rounded=0;exitX=0.5;exitY=1;exitDx=0;exitDy=0;entryX=0.5;entryY=0;entryDx=0;entryDy=0;" parent="WIyWlLk6GJQsqaUBKTNV-1" source="ZPV8zCerwzT6bf8s00EN-15" target="ZPV8zCerwzT6bf8s00EN-18" edge="1">
          <mxGeometry width="50" height="50" relative="1" as="geometry">
            <mxPoint x="669.6600000000001" y="903.7" as="sourcePoint" />
            <mxPoint x="670" y="933.7" as="targetPoint" />
          </mxGeometry>
        </mxCell>
        <mxCell id="ZPV8zCerwzT6bf8s00EN-21" value="S2 short" style="edgeLabel;html=1;align=center;verticalAlign=middle;resizable=0;points=[];fontStyle=1" parent="ZPV8zCerwzT6bf8s00EN-20" vertex="1" connectable="0">
          <mxGeometry x="-0.2414" y="2" relative="1" as="geometry">
            <mxPoint as="offset" />
          </mxGeometry>
        </mxCell>
        <mxCell id="ZPV8zCerwzT6bf8s00EN-23" value="" style="curved=1;endArrow=classic;html=1;rounded=0;exitX=1;exitY=0.5;exitDx=0;exitDy=0;entryX=1;entryY=0.5;entryDx=0;entryDy=0;" parent="WIyWlLk6GJQsqaUBKTNV-1" source="ZPV8zCerwzT6bf8s00EN-18" target="WIyWlLk6GJQsqaUBKTNV-3" edge="1">
          <mxGeometry width="50" height="50" relative="1" as="geometry">
            <mxPoint x="691" y="920" as="sourcePoint" />
            <mxPoint x="741" y="870" as="targetPoint" />
            <Array as="points">
              <mxPoint x="800" y="970" />
              <mxPoint x="800" y="720" />
              <mxPoint x="780" y="520" />
            </Array>
          </mxGeometry>
        </mxCell>
        <mxCell id="ZPV8zCerwzT6bf8s00EN-24" value="S2 short" style="edgeLabel;html=1;align=center;verticalAlign=middle;resizable=0;points=[];fontStyle=1" parent="ZPV8zCerwzT6bf8s00EN-23" vertex="1" connectable="0">
          <mxGeometry x="-0.0089" y="21" relative="1" as="geometry">
            <mxPoint x="1" y="283" as="offset" />
          </mxGeometry>
        </mxCell>
        <mxCell id="ZPV8zCerwzT6bf8s00EN-25" value="" style="curved=1;endArrow=classic;html=1;rounded=0;exitX=1;exitY=0.5;exitDx=0;exitDy=0;entryX=0.5;entryY=0;entryDx=0;entryDy=0;" parent="WIyWlLk6GJQsqaUBKTNV-1" source="ZPV8zCerwzT6bf8s00EN-12" target="ZPV8zCerwzT6bf8s00EN-12" edge="1">
          <mxGeometry width="50" height="50" relative="1" as="geometry">
            <mxPoint x="770" y="740" as="sourcePoint" />
            <mxPoint x="820" y="690" as="targetPoint" />
            <Array as="points">
              <mxPoint x="760" y="780" />
              <mxPoint x="750" y="750" />
            </Array>
          </mxGeometry>
        </mxCell>
        <mxCell id="ZPV8zCerwzT6bf8s00EN-26" value="S1 short&amp;nbsp;&lt;div&gt;(increase)&lt;/div&gt;" style="edgeLabel;html=1;align=center;verticalAlign=middle;resizable=0;points=[];fontStyle=1" parent="ZPV8zCerwzT6bf8s00EN-25" vertex="1" connectable="0">
          <mxGeometry x="0.1184" relative="1" as="geometry">
            <mxPoint as="offset" />
          </mxGeometry>
        </mxCell>
        <mxCell id="ZPV8zCerwzT6bf8s00EN-28" value="" style="curved=1;endArrow=classic;html=1;rounded=0;entryX=0.5;entryY=0;entryDx=0;entryDy=0;exitX=0;exitY=0.5;exitDx=0;exitDy=0;elbow=horizontal;" parent="WIyWlLk6GJQsqaUBKTNV-1" source="ZPV8zCerwzT6bf8s00EN-15" target="ZPV8zCerwzT6bf8s00EN-15" edge="1">
          <mxGeometry width="50" height="50" relative="1" as="geometry">
            <mxPoint x="590" y="800" as="sourcePoint" />
            <mxPoint x="650" y="790" as="targetPoint" />
            <Array as="points">
              <mxPoint x="550" y="820" />
            </Array>
          </mxGeometry>
        </mxCell>
        <mxCell id="ZPV8zCerwzT6bf8s00EN-29" value="S1 short&amp;nbsp;&lt;div&gt;(increase)&lt;/div&gt;" style="edgeLabel;html=1;align=center;verticalAlign=middle;resizable=0;points=[];fontStyle=1" parent="ZPV8zCerwzT6bf8s00EN-28" vertex="1" connectable="0">
          <mxGeometry x="0.1184" relative="1" as="geometry">
            <mxPoint x="-11" y="13" as="offset" />
          </mxGeometry>
        </mxCell>
        <mxCell id="ZPV8zCerwzT6bf8s00EN-30" value="" style="curved=1;endArrow=classic;html=1;rounded=0;exitX=0;exitY=0.5;exitDx=0;exitDy=0;entryX=0.5;entryY=0;entryDx=0;entryDy=0;" parent="WIyWlLk6GJQsqaUBKTNV-1" source="ZPV8zCerwzT6bf8s00EN-18" target="ZPV8zCerwzT6bf8s00EN-18" edge="1">
          <mxGeometry width="50" height="50" relative="1" as="geometry">
            <mxPoint x="560" y="963.7" as="sourcePoint" />
            <mxPoint x="670" y="943.7" as="targetPoint" />
            <Array as="points">
              <mxPoint x="580" y="953.7" />
              <mxPoint x="560" y="923.7" />
              <mxPoint x="580" y="903.7" />
            </Array>
          </mxGeometry>
        </mxCell>
        <mxCell id="ZPV8zCerwzT6bf8s00EN-31" value="S1 short&amp;nbsp;&lt;div&gt;(increase)&lt;/div&gt;" style="edgeLabel;html=1;align=center;verticalAlign=middle;resizable=0;points=[];fontStyle=1" parent="ZPV8zCerwzT6bf8s00EN-30" vertex="1" connectable="0">
          <mxGeometry x="0.1184" relative="1" as="geometry">
            <mxPoint x="-22" y="13" as="offset" />
          </mxGeometry>
        </mxCell>
        <mxCell id="ZPV8zCerwzT6bf8s00EN-34" value="" style="curved=1;endArrow=classic;html=1;rounded=0;exitX=1;exitY=0.5;exitDx=0;exitDy=0;entryX=0.5;entryY=0;entryDx=0;entryDy=0;" parent="WIyWlLk6GJQsqaUBKTNV-1" source="WIyWlLk6GJQsqaUBKTNV-7" target="WIyWlLk6GJQsqaUBKTNV-7" edge="1">
          <mxGeometry width="50" height="50" relative="1" as="geometry">
            <mxPoint x="661" y="614" as="sourcePoint" />
            <mxPoint x="601" y="594" as="targetPoint" />
            <Array as="points">
              <mxPoint x="691" y="590" />
              <mxPoint x="681" y="560" />
            </Array>
          </mxGeometry>
        </mxCell>
        <mxCell id="ZPV8zCerwzT6bf8s00EN-35" value="&lt;b&gt;S1 short&amp;nbsp;&lt;/b&gt;&lt;div&gt;&lt;b&gt;(increase)&lt;/b&gt;&lt;/div&gt;" style="edgeLabel;html=1;align=center;verticalAlign=middle;resizable=0;points=[];" parent="ZPV8zCerwzT6bf8s00EN-34" vertex="1" connectable="0">
          <mxGeometry x="0.1184" relative="1" as="geometry">
            <mxPoint x="-7" y="4" as="offset" />
          </mxGeometry>
        </mxCell>
        <mxCell id="ZPV8zCerwzT6bf8s00EN-36" value="" style="curved=1;endArrow=classic;html=1;rounded=0;exitX=0.5;exitY=1;exitDx=0;exitDy=0;entryX=0.5;entryY=0;entryDx=0;entryDy=0;" parent="WIyWlLk6GJQsqaUBKTNV-1" source="WIyWlLk6GJQsqaUBKTNV-12" target="ZPV8zCerwzT6bf8s00EN-12" edge="1">
          <mxGeometry width="50" height="50" relative="1" as="geometry">
            <mxPoint x="601" y="740" as="sourcePoint" />
            <mxPoint x="711" y="720" as="targetPoint" />
            <Array as="points">
              <mxPoint x="591" y="760" />
              <mxPoint x="650" y="760" />
            </Array>
          </mxGeometry>
        </mxCell>
        <mxCell id="ZPV8zCerwzT6bf8s00EN-37" value="S2 long" style="edgeLabel;html=1;align=center;verticalAlign=middle;resizable=0;points=[];fontStyle=1" parent="ZPV8zCerwzT6bf8s00EN-36" vertex="1" connectable="0">
          <mxGeometry x="0.1191" relative="1" as="geometry">
            <mxPoint x="-34" y="-13" as="offset" />
          </mxGeometry>
        </mxCell>
        <mxCell id="ZPV8zCerwzT6bf8s00EN-39" value="Change hours" style="rounded=1;whiteSpace=wrap;html=1;fontSize=12;glass=0;strokeWidth=1;shadow=0;" parent="WIyWlLk6GJQsqaUBKTNV-1" vertex="1">
          <mxGeometry x="201" y="600" width="120" height="40" as="geometry" />
        </mxCell>
        <mxCell id="ZPV8zCerwzT6bf8s00EN-40" value="Change minutes" style="rounded=1;whiteSpace=wrap;html=1;fontSize=12;glass=0;strokeWidth=1;shadow=0;" parent="WIyWlLk6GJQsqaUBKTNV-1" vertex="1">
          <mxGeometry x="201" y="690" width="120" height="40" as="geometry" />
        </mxCell>
        <mxCell id="ZPV8zCerwzT6bf8s00EN-42" value="" style="curved=1;endArrow=classic;html=1;rounded=0;exitX=0;exitY=0.5;exitDx=0;exitDy=0;entryX=0.5;entryY=0;entryDx=0;entryDy=0;" parent="WIyWlLk6GJQsqaUBKTNV-1" source="WIyWlLk6GJQsqaUBKTNV-3" target="ZPV8zCerwzT6bf8s00EN-39" edge="1">
          <mxGeometry width="50" height="50" relative="1" as="geometry">
            <mxPoint x="241" y="570" as="sourcePoint" />
            <mxPoint x="291" y="520" as="targetPoint" />
            <Array as="points">
              <mxPoint x="301" y="530" />
            </Array>
          </mxGeometry>
        </mxCell>
        <mxCell id="ZPV8zCerwzT6bf8s00EN-43" value="&lt;b&gt;S2 long&lt;/b&gt;" style="edgeLabel;html=1;align=center;verticalAlign=middle;resizable=0;points=[];" parent="ZPV8zCerwzT6bf8s00EN-42" vertex="1" connectable="0">
          <mxGeometry x="-0.1192" y="13" relative="1" as="geometry">
            <mxPoint as="offset" />
          </mxGeometry>
        </mxCell>
        <mxCell id="ZPV8zCerwzT6bf8s00EN-44" value="" style="curved=1;endArrow=classic;html=1;rounded=0;exitX=0.5;exitY=1;exitDx=0;exitDy=0;entryX=0.5;entryY=0;entryDx=0;entryDy=0;" parent="WIyWlLk6GJQsqaUBKTNV-1" source="ZPV8zCerwzT6bf8s00EN-39" target="ZPV8zCerwzT6bf8s00EN-39" edge="1">
          <mxGeometry width="50" height="50" relative="1" as="geometry">
            <mxPoint x="101" y="640" as="sourcePoint" />
            <mxPoint x="151" y="590" as="targetPoint" />
            <Array as="points">
              <mxPoint x="171" y="670" />
              <mxPoint x="140" y="560" />
            </Array>
          </mxGeometry>
        </mxCell>
        <mxCell id="ZPV8zCerwzT6bf8s00EN-45" value="S1 short&lt;div&gt;(increase)&lt;/div&gt;" style="edgeLabel;html=1;align=center;verticalAlign=middle;resizable=0;points=[];fontStyle=1" parent="ZPV8zCerwzT6bf8s00EN-44" vertex="1" connectable="0">
          <mxGeometry x="0.814" relative="1" as="geometry">
            <mxPoint x="-81" y="10" as="offset" />
          </mxGeometry>
        </mxCell>
        <mxCell id="ZPV8zCerwzT6bf8s00EN-46" value="" style="endArrow=classic;html=1;rounded=0;exitX=0.5;exitY=1;exitDx=0;exitDy=0;entryX=0.5;entryY=0;entryDx=0;entryDy=0;" parent="WIyWlLk6GJQsqaUBKTNV-1" source="ZPV8zCerwzT6bf8s00EN-39" target="ZPV8zCerwzT6bf8s00EN-40" edge="1">
          <mxGeometry width="50" height="50" relative="1" as="geometry">
            <mxPoint x="311" y="680" as="sourcePoint" />
            <mxPoint x="361" y="630" as="targetPoint" />
          </mxGeometry>
        </mxCell>
        <mxCell id="ZPV8zCerwzT6bf8s00EN-48" value="S2 short" style="edgeLabel;html=1;align=center;verticalAlign=middle;resizable=0;points=[];fontStyle=1" parent="ZPV8zCerwzT6bf8s00EN-46" vertex="1" connectable="0">
          <mxGeometry x="-0.1067" y="1" relative="1" as="geometry">
            <mxPoint as="offset" />
          </mxGeometry>
        </mxCell>
        <mxCell id="ZPV8zCerwzT6bf8s00EN-47" value="" style="endArrow=classic;html=1;rounded=0;exitX=0.5;exitY=1;exitDx=0;exitDy=0;entryX=0.5;entryY=0;entryDx=0;entryDy=0;" parent="WIyWlLk6GJQsqaUBKTNV-1" source="ZPV8zCerwzT6bf8s00EN-40" target="ZPV8zCerwzT6bf8s00EN-54" edge="1">
          <mxGeometry width="50" height="50" relative="1" as="geometry">
            <mxPoint x="321" y="770" as="sourcePoint" />
            <mxPoint x="261" y="773.7" as="targetPoint" />
          </mxGeometry>
        </mxCell>
        <mxCell id="ZPV8zCerwzT6bf8s00EN-49" value="S2 short" style="edgeLabel;html=1;align=center;verticalAlign=middle;resizable=0;points=[];fontStyle=1" parent="ZPV8zCerwzT6bf8s00EN-47" vertex="1" connectable="0">
          <mxGeometry x="0.0221" y="1" relative="1" as="geometry">
            <mxPoint as="offset" />
          </mxGeometry>
        </mxCell>
        <mxCell id="ZPV8zCerwzT6bf8s00EN-50" value="" style="curved=1;endArrow=classic;html=1;rounded=0;exitX=0.5;exitY=1;exitDx=0;exitDy=0;entryX=0.5;entryY=0;entryDx=0;entryDy=0;" parent="WIyWlLk6GJQsqaUBKTNV-1" source="ZPV8zCerwzT6bf8s00EN-40" target="ZPV8zCerwzT6bf8s00EN-40" edge="1">
          <mxGeometry width="50" height="50" relative="1" as="geometry">
            <mxPoint x="251" y="740" as="sourcePoint" />
            <mxPoint x="181" y="700" as="targetPoint" />
            <Array as="points">
              <mxPoint x="171" y="760" />
              <mxPoint x="110" y="650" />
            </Array>
          </mxGeometry>
        </mxCell>
        <mxCell id="ZPV8zCerwzT6bf8s00EN-51" value="S1 short&lt;div&gt;(increase)&lt;/div&gt;" style="edgeLabel;html=1;align=center;verticalAlign=middle;resizable=0;points=[];fontStyle=1" parent="ZPV8zCerwzT6bf8s00EN-50" vertex="1" connectable="0">
          <mxGeometry x="0.814" relative="1" as="geometry">
            <mxPoint x="-84" y="9" as="offset" />
          </mxGeometry>
        </mxCell>
        <mxCell id="ZPV8zCerwzT6bf8s00EN-54" value="12h / 24H" style="rounded=1;whiteSpace=wrap;html=1;fontSize=12;glass=0;strokeWidth=1;shadow=0;" parent="WIyWlLk6GJQsqaUBKTNV-1" vertex="1">
          <mxGeometry x="201" y="773.7" width="120" height="40" as="geometry" />
        </mxCell>
        <mxCell id="ZPV8zCerwzT6bf8s00EN-56" value="" style="curved=1;endArrow=classic;html=1;rounded=0;entryX=0.5;entryY=0;entryDx=0;entryDy=0;exitX=0.5;exitY=1;exitDx=0;exitDy=0;" parent="WIyWlLk6GJQsqaUBKTNV-1" source="ZPV8zCerwzT6bf8s00EN-54" target="ZPV8zCerwzT6bf8s00EN-54" edge="1">
          <mxGeometry width="50" height="50" relative="1" as="geometry">
            <mxPoint x="261" y="900" as="sourcePoint" />
            <mxPoint x="201" y="870" as="targetPoint" />
            <Array as="points">
              <mxPoint x="150" y="830" />
              <mxPoint x="120" y="780" />
              <mxPoint x="180" y="750" />
            </Array>
          </mxGeometry>
        </mxCell>
        <mxCell id="ZPV8zCerwzT6bf8s00EN-57" value="S1 short&lt;div&gt;(switch)&lt;/div&gt;" style="edgeLabel;html=1;align=center;verticalAlign=middle;resizable=0;points=[];fontStyle=1" parent="ZPV8zCerwzT6bf8s00EN-56" vertex="1" connectable="0">
          <mxGeometry x="0.814" relative="1" as="geometry">
            <mxPoint x="-91" y="15" as="offset" />
          </mxGeometry>
        </mxCell>
        <mxCell id="ZPV8zCerwzT6bf8s00EN-59" value="" style="curved=1;endArrow=classic;html=1;rounded=0;entryX=0;entryY=0.5;entryDx=0;entryDy=0;exitX=0.5;exitY=1;exitDx=0;exitDy=0;" parent="WIyWlLk6GJQsqaUBKTNV-1" source="ZPV8zCerwzT6bf8s00EN-54" target="WIyWlLk6GJQsqaUBKTNV-3" edge="1">
          <mxGeometry width="50" height="50" relative="1" as="geometry">
            <mxPoint x="281" y="930" as="sourcePoint" />
            <mxPoint x="141" y="710" as="targetPoint" />
            <Array as="points">
              <mxPoint x="120" y="920" />
              <mxPoint x="90" y="710" />
              <mxPoint x="110" y="570" />
              <mxPoint x="238" y="510" />
            </Array>
          </mxGeometry>
        </mxCell>
        <mxCell id="ZPV8zCerwzT6bf8s00EN-60" value="S2 short" style="edgeLabel;html=1;align=center;verticalAlign=middle;resizable=0;points=[];fontStyle=1" parent="ZPV8zCerwzT6bf8s00EN-59" vertex="1" connectable="0">
          <mxGeometry x="0.4005" y="3" relative="1" as="geometry">
            <mxPoint x="46" y="303" as="offset" />
          </mxGeometry>
        </mxCell>
        <mxCell id="ZPV8zCerwzT6bf8s00EN-63" value="&lt;font style=&quot;font-size: 30px;&quot;&gt;4 digit DIY clock (HH:MM)&lt;/font&gt;" style="text;html=1;align=center;verticalAlign=middle;resizable=0;points=[];autosize=1;strokeColor=none;fillColor=none;fontSize=36;" parent="WIyWlLk6GJQsqaUBKTNV-1" vertex="1">
          <mxGeometry x="253" y="99" width="370" height="60" as="geometry" />
        </mxCell>
        <mxCell id="ZPV8zCerwzT6bf8s00EN-68" value="Alarm" style="rounded=1;whiteSpace=wrap;html=1;fontSize=12;glass=0;strokeWidth=1;shadow=0;fillColor=#d5e8d4;strokeColor=#82b366;" parent="WIyWlLk6GJQsqaUBKTNV-1" vertex="1">
          <mxGeometry x="183" y="360" width="120" height="40" as="geometry" />
        </mxCell>
        <mxCell id="ZPV8zCerwzT6bf8s00EN-69" value="Chime" style="rounded=1;whiteSpace=wrap;html=1;fontSize=12;glass=0;strokeWidth=1;shadow=0;fillColor=#d5e8d4;strokeColor=#82b366;" parent="WIyWlLk6GJQsqaUBKTNV-1" vertex="1">
          <mxGeometry x="183" y="255" width="120" height="40" as="geometry" />
        </mxCell>
        <mxCell id="ZPV8zCerwzT6bf8s00EN-72" value="" style="endArrow=classic;html=1;rounded=0;entryX=0.5;entryY=1;entryDx=0;entryDy=0;exitX=0.5;exitY=0;exitDx=0;exitDy=0;" parent="WIyWlLk6GJQsqaUBKTNV-1" source="ZPV8zCerwzT6bf8s00EN-68" target="ZPV8zCerwzT6bf8s00EN-69" edge="1">
          <mxGeometry width="50" height="50" relative="1" as="geometry">
            <mxPoint x="232" y="340" as="sourcePoint" />
            <mxPoint x="242.57999999999998" y="280" as="targetPoint" />
          </mxGeometry>
        </mxCell>
        <mxCell id="ZPV8zCerwzT6bf8s00EN-73" value="S1 short" style="edgeLabel;html=1;align=center;verticalAlign=middle;resizable=0;points=[];fontStyle=1" parent="ZPV8zCerwzT6bf8s00EN-72" vertex="1" connectable="0">
          <mxGeometry x="-0.0429" y="-2" relative="1" as="geometry">
            <mxPoint as="offset" />
          </mxGeometry>
        </mxCell>
        <mxCell id="ZPV8zCerwzT6bf8s00EN-75" value="" style="curved=1;endArrow=classic;html=1;rounded=0;exitX=0;exitY=0.5;exitDx=0;exitDy=0;entryX=0.5;entryY=0;entryDx=0;entryDy=0;" parent="WIyWlLk6GJQsqaUBKTNV-1" source="ZPV8zCerwzT6bf8s00EN-68" target="ZPV8zCerwzT6bf8s00EN-68" edge="1">
          <mxGeometry width="50" height="50" relative="1" as="geometry">
            <mxPoint x="62" y="390" as="sourcePoint" />
            <mxPoint x="112" y="340" as="targetPoint" />
            <Array as="points">
              <mxPoint x="112" y="390" />
              <mxPoint x="112" y="330" />
              <mxPoint x="202" y="330" />
            </Array>
          </mxGeometry>
        </mxCell>
        <mxCell id="ZPV8zCerwzT6bf8s00EN-76" value="S2 short&lt;div&gt;(on/off)&lt;/div&gt;" style="edgeLabel;html=1;align=center;verticalAlign=middle;resizable=0;points=[];fontStyle=1" parent="ZPV8zCerwzT6bf8s00EN-75" vertex="1" connectable="0">
          <mxGeometry x="-0.322" y="-4" relative="1" as="geometry">
            <mxPoint as="offset" />
          </mxGeometry>
        </mxCell>
        <mxCell id="ZPV8zCerwzT6bf8s00EN-77" value="" style="curved=1;endArrow=classic;html=1;rounded=0;exitX=0;exitY=0.5;exitDx=0;exitDy=0;entryX=0.5;entryY=0;entryDx=0;entryDy=0;" parent="WIyWlLk6GJQsqaUBKTNV-1" source="ZPV8zCerwzT6bf8s00EN-69" target="ZPV8zCerwzT6bf8s00EN-69" edge="1">
          <mxGeometry width="50" height="50" relative="1" as="geometry">
            <mxPoint x="183" y="270" as="sourcePoint" />
            <mxPoint x="243" y="250" as="targetPoint" />
            <Array as="points">
              <mxPoint x="112" y="280" />
              <mxPoint x="112" y="220" />
              <mxPoint x="222" y="230" />
            </Array>
          </mxGeometry>
        </mxCell>
        <mxCell id="ZPV8zCerwzT6bf8s00EN-78" value="S2 short&lt;div&gt;(on/off)&lt;/div&gt;" style="edgeLabel;html=1;align=center;verticalAlign=middle;resizable=0;points=[];fontStyle=1" parent="ZPV8zCerwzT6bf8s00EN-77" vertex="1" connectable="0">
          <mxGeometry x="-0.322" y="-4" relative="1" as="geometry">
            <mxPoint as="offset" />
          </mxGeometry>
        </mxCell>
        <mxCell id="ZPV8zCerwzT6bf8s00EN-83" value="" style="curved=1;endArrow=classic;html=1;rounded=0;exitX=0.5;exitY=0;exitDx=0;exitDy=0;entryX=0.5;entryY=1;entryDx=0;entryDy=0;" parent="WIyWlLk6GJQsqaUBKTNV-1" source="WIyWlLk6GJQsqaUBKTNV-3" target="ZPV8zCerwzT6bf8s00EN-68" edge="1">
          <mxGeometry width="50" height="50" relative="1" as="geometry">
            <mxPoint x="460" y="470" as="sourcePoint" />
            <mxPoint x="230" y="420" as="targetPoint" />
            <Array as="points">
              <mxPoint x="471" y="470" />
              <mxPoint x="380" y="470" />
              <mxPoint x="270" y="460" />
              <mxPoint x="240" y="430" />
            </Array>
          </mxGeometry>
        </mxCell>
        <mxCell id="ZPV8zCerwzT6bf8s00EN-84" value="S1 long" style="edgeLabel;html=1;align=center;verticalAlign=middle;resizable=0;points=[];fontStyle=1" parent="WIyWlLk6GJQsqaUBKTNV-1" vertex="1" connectable="0">
          <mxGeometry x="410.0000000000001" y="469.9966666666667" as="geometry" />
        </mxCell>
        <mxCell id="ZPV8zCerwzT6bf8s00EN-85" value="Change hours" style="rounded=1;whiteSpace=wrap;html=1;fontSize=12;glass=0;strokeWidth=1;shadow=0;" parent="WIyWlLk6GJQsqaUBKTNV-1" vertex="1">
          <mxGeometry x="371" y="360" width="120" height="40" as="geometry" />
        </mxCell>
        <mxCell id="ZPV8zCerwzT6bf8s00EN-86" value="Change minutes" style="rounded=1;whiteSpace=wrap;html=1;fontSize=12;glass=0;strokeWidth=1;shadow=0;" parent="WIyWlLk6GJQsqaUBKTNV-1" vertex="1">
          <mxGeometry x="557" y="360" width="120" height="40" as="geometry" />
        </mxCell>
        <mxCell id="ZPV8zCerwzT6bf8s00EN-87" value="" style="curved=1;endArrow=classic;html=1;rounded=0;exitX=1;exitY=0.5;exitDx=0;exitDy=0;entryX=0.5;entryY=1;entryDx=0;entryDy=0;" parent="WIyWlLk6GJQsqaUBKTNV-1" source="ZPV8zCerwzT6bf8s00EN-85" target="ZPV8zCerwzT6bf8s00EN-85" edge="1">
          <mxGeometry width="50" height="50" relative="1" as="geometry">
            <mxPoint x="505" y="380" as="sourcePoint" />
            <mxPoint x="445" y="360" as="targetPoint" />
            <Array as="points">
              <mxPoint x="530" y="410" />
              <mxPoint x="500" y="440" />
            </Array>
          </mxGeometry>
        </mxCell>
        <mxCell id="ZPV8zCerwzT6bf8s00EN-88" value="&lt;b&gt;S1 short&amp;nbsp;&lt;/b&gt;&lt;div&gt;&lt;b&gt;(increase)&lt;/b&gt;&lt;/div&gt;" style="edgeLabel;html=1;align=center;verticalAlign=middle;resizable=0;points=[];" parent="ZPV8zCerwzT6bf8s00EN-87" vertex="1" connectable="0">
          <mxGeometry x="0.1184" relative="1" as="geometry">
            <mxPoint x="14" y="-18" as="offset" />
          </mxGeometry>
        </mxCell>
        <mxCell id="ZPV8zCerwzT6bf8s00EN-89" value="" style="curved=1;endArrow=classic;html=1;rounded=0;exitX=1;exitY=0.5;exitDx=0;exitDy=0;entryX=0.5;entryY=0;entryDx=0;entryDy=0;" parent="WIyWlLk6GJQsqaUBKTNV-1" source="ZPV8zCerwzT6bf8s00EN-86" target="ZPV8zCerwzT6bf8s00EN-86" edge="1">
          <mxGeometry width="50" height="50" relative="1" as="geometry">
            <mxPoint x="677" y="380" as="sourcePoint" />
            <mxPoint x="617" y="360" as="targetPoint" />
            <Array as="points">
              <mxPoint x="740" y="380" />
              <mxPoint x="720" y="330" />
            </Array>
          </mxGeometry>
        </mxCell>
        <mxCell id="ZPV8zCerwzT6bf8s00EN-90" value="&lt;b&gt;S1 short&amp;nbsp;&lt;/b&gt;&lt;div&gt;&lt;b&gt;(increase)&lt;/b&gt;&lt;/div&gt;" style="edgeLabel;html=1;align=center;verticalAlign=middle;resizable=0;points=[];" parent="ZPV8zCerwzT6bf8s00EN-89" vertex="1" connectable="0">
          <mxGeometry x="0.1184" relative="1" as="geometry">
            <mxPoint x="8" y="28" as="offset" />
          </mxGeometry>
        </mxCell>
        <mxCell id="ZPV8zCerwzT6bf8s00EN-93" value="" style="curved=1;endArrow=classic;html=1;rounded=0;exitX=1;exitY=0.5;exitDx=0;exitDy=0;entryX=0.5;entryY=1;entryDx=0;entryDy=0;" parent="WIyWlLk6GJQsqaUBKTNV-1" source="ZPV8zCerwzT6bf8s00EN-86" target="ZPV8zCerwzT6bf8s00EN-68" edge="1">
          <mxGeometry width="50" height="50" relative="1" as="geometry">
            <mxPoint x="682" y="480" as="sourcePoint" />
            <mxPoint x="270" y="420" as="targetPoint" />
            <Array as="points">
              <mxPoint x="750" y="410" />
              <mxPoint x="620" y="450" />
              <mxPoint x="280" y="450" />
            </Array>
          </mxGeometry>
        </mxCell>
        <mxCell id="ZPV8zCerwzT6bf8s00EN-94" value="S2 short" style="edgeLabel;html=1;align=center;verticalAlign=middle;resizable=0;points=[];fontStyle=1" parent="ZPV8zCerwzT6bf8s00EN-93" vertex="1" connectable="0">
          <mxGeometry x="-0.7605" y="-2" relative="1" as="geometry">
            <mxPoint x="-25" y="3" as="offset" />
          </mxGeometry>
        </mxCell>
        <mxCell id="ZPV8zCerwzT6bf8s00EN-95" value="" style="endArrow=classic;html=1;rounded=0;exitX=1;exitY=0.5;exitDx=0;exitDy=0;entryX=0;entryY=0.5;entryDx=0;entryDy=0;" parent="WIyWlLk6GJQsqaUBKTNV-1" source="ZPV8zCerwzT6bf8s00EN-68" target="ZPV8zCerwzT6bf8s00EN-85" edge="1">
          <mxGeometry width="50" height="50" relative="1" as="geometry">
            <mxPoint x="332" y="460" as="sourcePoint" />
            <mxPoint x="382" y="410" as="targetPoint" />
          </mxGeometry>
        </mxCell>
        <mxCell id="ZPV8zCerwzT6bf8s00EN-96" value="S2 long" style="edgeLabel;html=1;align=center;verticalAlign=middle;resizable=0;points=[];fontStyle=1" parent="ZPV8zCerwzT6bf8s00EN-95" vertex="1" connectable="0">
          <mxGeometry x="-0.06" relative="1" as="geometry">
            <mxPoint as="offset" />
          </mxGeometry>
        </mxCell>
        <mxCell id="ZPV8zCerwzT6bf8s00EN-97" value="" style="endArrow=classic;html=1;rounded=0;exitX=1;exitY=0.5;exitDx=0;exitDy=0;entryX=0;entryY=0.5;entryDx=0;entryDy=0;" parent="WIyWlLk6GJQsqaUBKTNV-1" source="ZPV8zCerwzT6bf8s00EN-85" target="ZPV8zCerwzT6bf8s00EN-86" edge="1">
          <mxGeometry width="50" height="50" relative="1" as="geometry">
            <mxPoint x="491" y="379.57" as="sourcePoint" />
            <mxPoint x="559" y="379.57" as="targetPoint" />
          </mxGeometry>
        </mxCell>
        <mxCell id="ZPV8zCerwzT6bf8s00EN-98" value="S2 short" style="edgeLabel;html=1;align=center;verticalAlign=middle;resizable=0;points=[];fontStyle=1" parent="ZPV8zCerwzT6bf8s00EN-97" vertex="1" connectable="0">
          <mxGeometry x="-0.06" relative="1" as="geometry">
            <mxPoint as="offset" />
          </mxGeometry>
        </mxCell>
        <mxCell id="ZPV8zCerwzT6bf8s00EN-100" value="" style="curved=1;endArrow=classic;html=1;rounded=0;entryX=0;entryY=0.5;entryDx=0;entryDy=0;exitX=0.5;exitY=0;exitDx=0;exitDy=0;" parent="WIyWlLk6GJQsqaUBKTNV-1" source="ZPV8zCerwzT6bf8s00EN-69" target="WIyWlLk6GJQsqaUBKTNV-3" edge="1">
          <mxGeometry width="50" height="50" relative="1" as="geometry">
            <mxPoint x="40" y="180" as="sourcePoint" />
            <mxPoint x="70" y="290" as="targetPoint" />
            <Array as="points">
              <mxPoint x="250" y="180" />
              <mxPoint x="90" y="190" />
              <mxPoint x="60" y="290" />
              <mxPoint x="70" y="380" />
              <mxPoint x="110" y="470" />
              <mxPoint x="230" y="510" />
            </Array>
          </mxGeometry>
        </mxCell>
        <mxCell id="ZPV8zCerwzT6bf8s00EN-101" value="S1 short" style="edgeLabel;html=1;align=center;verticalAlign=middle;resizable=0;points=[];fontStyle=1" parent="WIyWlLk6GJQsqaUBKTNV-1" vertex="1" connectable="0">
          <mxGeometry x="240.9999999999999" y="219.99565217391313" as="geometry" />
        </mxCell>
        <mxCell id="ZPV8zCerwzT6bf8s00EN-124" value="Change start hour" style="rounded=1;whiteSpace=wrap;html=1;fontSize=12;glass=0;strokeWidth=1;shadow=0;" parent="WIyWlLk6GJQsqaUBKTNV-1" vertex="1">
          <mxGeometry x="371" y="255" width="120" height="40" as="geometry" />
        </mxCell>
        <mxCell id="ZPV8zCerwzT6bf8s00EN-125" value="Change end hour" style="rounded=1;whiteSpace=wrap;html=1;fontSize=12;glass=0;strokeWidth=1;shadow=0;" parent="WIyWlLk6GJQsqaUBKTNV-1" vertex="1">
          <mxGeometry x="557" y="255" width="120" height="40" as="geometry" />
        </mxCell>
        <mxCell id="ZPV8zCerwzT6bf8s00EN-126" value="" style="curved=1;endArrow=classic;html=1;rounded=0;exitX=1;exitY=0.5;exitDx=0;exitDy=0;entryX=0.5;entryY=0;entryDx=0;entryDy=0;" parent="WIyWlLk6GJQsqaUBKTNV-1" source="ZPV8zCerwzT6bf8s00EN-124" target="ZPV8zCerwzT6bf8s00EN-124" edge="1">
          <mxGeometry width="50" height="50" relative="1" as="geometry">
            <mxPoint x="505" y="275" as="sourcePoint" />
            <mxPoint x="445" y="255" as="targetPoint" />
            <Array as="points">
              <mxPoint x="527" y="245" />
              <mxPoint x="507" y="215" />
            </Array>
          </mxGeometry>
        </mxCell>
        <mxCell id="ZPV8zCerwzT6bf8s00EN-127" value="&lt;b&gt;S1 short&amp;nbsp;&lt;/b&gt;&lt;div&gt;&lt;b&gt;(increase)&lt;/b&gt;&lt;/div&gt;" style="edgeLabel;html=1;align=center;verticalAlign=middle;resizable=0;points=[];" parent="ZPV8zCerwzT6bf8s00EN-126" vertex="1" connectable="0">
          <mxGeometry x="0.1184" relative="1" as="geometry">
            <mxPoint x="14" y="9" as="offset" />
          </mxGeometry>
        </mxCell>
        <mxCell id="ZPV8zCerwzT6bf8s00EN-128" value="" style="curved=1;endArrow=classic;html=1;rounded=0;exitX=1;exitY=0.5;exitDx=0;exitDy=0;entryX=0.5;entryY=0;entryDx=0;entryDy=0;" parent="WIyWlLk6GJQsqaUBKTNV-1" source="ZPV8zCerwzT6bf8s00EN-125" target="ZPV8zCerwzT6bf8s00EN-125" edge="1">
          <mxGeometry width="50" height="50" relative="1" as="geometry">
            <mxPoint x="677" y="275" as="sourcePoint" />
            <mxPoint x="617" y="255" as="targetPoint" />
            <Array as="points">
              <mxPoint x="716" y="245" />
              <mxPoint x="706" y="215" />
            </Array>
          </mxGeometry>
        </mxCell>
        <mxCell id="ZPV8zCerwzT6bf8s00EN-129" value="&lt;b&gt;S1 short&amp;nbsp;&lt;/b&gt;&lt;div&gt;&lt;b&gt;(increase)&lt;/b&gt;&lt;/div&gt;" style="edgeLabel;html=1;align=center;verticalAlign=middle;resizable=0;points=[];" parent="ZPV8zCerwzT6bf8s00EN-128" vertex="1" connectable="0">
          <mxGeometry x="0.1184" relative="1" as="geometry">
            <mxPoint x="-7" y="4" as="offset" />
          </mxGeometry>
        </mxCell>
        <mxCell id="ZPV8zCerwzT6bf8s00EN-130" value="" style="curved=1;endArrow=classic;html=1;rounded=0;exitX=1;exitY=0.5;exitDx=0;exitDy=0;entryX=0.5;entryY=1;entryDx=0;entryDy=0;" parent="WIyWlLk6GJQsqaUBKTNV-1" source="ZPV8zCerwzT6bf8s00EN-125" edge="1">
          <mxGeometry width="50" height="50" relative="1" as="geometry">
            <mxPoint x="682" y="375" as="sourcePoint" />
            <mxPoint x="243" y="295" as="targetPoint" />
            <Array as="points">
              <mxPoint x="740" y="270" />
              <mxPoint x="740" y="310" />
              <mxPoint x="660" y="320" />
              <mxPoint x="470" y="320" />
              <mxPoint x="370" y="320" />
              <mxPoint x="320" y="320" />
              <mxPoint x="270" y="320" />
            </Array>
          </mxGeometry>
        </mxCell>
        <mxCell id="ZPV8zCerwzT6bf8s00EN-131" value="S2 short" style="edgeLabel;html=1;align=center;verticalAlign=middle;resizable=0;points=[];fontStyle=1" parent="ZPV8zCerwzT6bf8s00EN-130" vertex="1" connectable="0">
          <mxGeometry x="-0.7605" y="-2" relative="1" as="geometry">
            <mxPoint x="-8" y="9" as="offset" />
          </mxGeometry>
        </mxCell>
        <mxCell id="ZPV8zCerwzT6bf8s00EN-132" value="" style="endArrow=classic;html=1;rounded=0;exitX=1;exitY=0.5;exitDx=0;exitDy=0;entryX=0;entryY=0.5;entryDx=0;entryDy=0;" parent="WIyWlLk6GJQsqaUBKTNV-1" target="ZPV8zCerwzT6bf8s00EN-124" edge="1">
          <mxGeometry width="50" height="50" relative="1" as="geometry">
            <mxPoint x="303" y="275" as="sourcePoint" />
            <mxPoint x="382" y="305" as="targetPoint" />
          </mxGeometry>
        </mxCell>
        <mxCell id="ZPV8zCerwzT6bf8s00EN-133" value="S2 long" style="edgeLabel;html=1;align=center;verticalAlign=middle;resizable=0;points=[];fontStyle=1" parent="ZPV8zCerwzT6bf8s00EN-132" vertex="1" connectable="0">
          <mxGeometry x="-0.06" relative="1" as="geometry">
            <mxPoint as="offset" />
          </mxGeometry>
        </mxCell>
        <mxCell id="ZPV8zCerwzT6bf8s00EN-134" value="" style="endArrow=classic;html=1;rounded=0;exitX=1;exitY=0.5;exitDx=0;exitDy=0;entryX=0;entryY=0.5;entryDx=0;entryDy=0;" parent="WIyWlLk6GJQsqaUBKTNV-1" source="ZPV8zCerwzT6bf8s00EN-124" target="ZPV8zCerwzT6bf8s00EN-125" edge="1">
          <mxGeometry width="50" height="50" relative="1" as="geometry">
            <mxPoint x="491" y="274.57" as="sourcePoint" />
            <mxPoint x="559" y="274.57" as="targetPoint" />
          </mxGeometry>
        </mxCell>
        <mxCell id="ZPV8zCerwzT6bf8s00EN-135" value="S2 short" style="edgeLabel;html=1;align=center;verticalAlign=middle;resizable=0;points=[];fontStyle=1" parent="ZPV8zCerwzT6bf8s00EN-134" vertex="1" connectable="0">
          <mxGeometry x="-0.06" relative="1" as="geometry">
            <mxPoint as="offset" />
          </mxGeometry>
        </mxCell>
        <mxCell id="TEsDZc2kmZVkNtcbq4qy-0" value="Seconds" style="rounded=1;whiteSpace=wrap;html=1;fontSize=12;glass=0;strokeWidth=1;shadow=0;fillColor=#d5e8d4;strokeColor=#82b366;" parent="WIyWlLk6GJQsqaUBKTNV-1" vertex="1">
          <mxGeometry x="371" y="827.4000000000001" width="120" height="40" as="geometry" />
        </mxCell>
        <mxCell id="TEsDZc2kmZVkNtcbq4qy-1" value="" style="curved=1;endArrow=classic;html=1;rounded=0;exitX=0.5;exitY=1;exitDx=0;exitDy=0;entryX=0.5;entryY=0;entryDx=0;entryDy=0;" parent="WIyWlLk6GJQsqaUBKTNV-1" source="TEsDZc2kmZVkNtcbq4qy-0" target="TEsDZc2kmZVkNtcbq4qy-0" edge="1">
          <mxGeometry width="50" height="50" relative="1" as="geometry">
            <mxPoint x="421" y="873.7" as="sourcePoint" />
            <mxPoint x="351" y="847.7" as="targetPoint" />
            <Array as="points">
              <mxPoint x="430" y="920" />
              <mxPoint x="350" y="920" />
              <mxPoint x="360.5" y="790" />
              <mxPoint x="420" y="790" />
            </Array>
          </mxGeometry>
        </mxCell>
        <mxCell id="TEsDZc2kmZVkNtcbq4qy-2" value="S2 long&lt;div&gt;(reset)&lt;/div&gt;" style="edgeLabel;html=1;align=center;verticalAlign=middle;resizable=0;points=[];fontStyle=1" parent="TEsDZc2kmZVkNtcbq4qy-1" vertex="1" connectable="0">
          <mxGeometry x="0.814" relative="1" as="geometry">
            <mxPoint x="-50" y="116" as="offset" />
          </mxGeometry>
        </mxCell>
        <mxCell id="TEsDZc2kmZVkNtcbq4qy-9" value="" style="curved=1;endArrow=classic;html=1;rounded=0;exitX=0.5;exitY=1;exitDx=0;exitDy=0;entryX=0;entryY=0.5;entryDx=0;entryDy=0;" parent="WIyWlLk6GJQsqaUBKTNV-1" source="TEsDZc2kmZVkNtcbq4qy-0" target="WIyWlLk6GJQsqaUBKTNV-3" edge="1">
          <mxGeometry width="50" height="50" relative="1" as="geometry">
            <mxPoint x="400" y="810" as="sourcePoint" />
            <mxPoint x="410" y="880" as="targetPoint" />
            <Array as="points">
              <mxPoint x="420" y="980" />
              <mxPoint x="70" y="940" />
              <mxPoint x="30" y="480" />
            </Array>
          </mxGeometry>
        </mxCell>
        <mxCell id="TEsDZc2kmZVkNtcbq4qy-10" value="&lt;b&gt;S1 short&lt;/b&gt;" style="edgeLabel;html=1;align=center;verticalAlign=middle;resizable=0;points=[];" parent="WIyWlLk6GJQsqaUBKTNV-1" vertex="1" connectable="0">
          <mxGeometry x="303.00193535526546" y="960.0016143516518" as="geometry" />
        </mxCell>
        <mxCell id="vuFQMqXv7wviXNt7Aknc-2" value="" style="curved=1;endArrow=classic;html=1;rounded=0;entryX=0.5;entryY=0;entryDx=0;entryDy=0;exitX=0.5;exitY=1;exitDx=0;exitDy=0;" parent="WIyWlLk6GJQsqaUBKTNV-1" source="WIyWlLk6GJQsqaUBKTNV-3" target="TEsDZc2kmZVkNtcbq4qy-0" edge="1">
          <mxGeometry width="50" height="50" relative="1" as="geometry">
            <mxPoint x="380" y="680" as="sourcePoint" />
            <mxPoint x="430" y="630" as="targetPoint" />
            <Array as="points">
              <mxPoint x="340" y="560" />
            </Array>
          </mxGeometry>
        </mxCell>
        <mxCell id="TEsDZc2kmZVkNtcbq4qy-8" value="&lt;b&gt;S1 short&lt;/b&gt;" style="edgeLabel;html=1;align=center;verticalAlign=middle;resizable=0;points=[];" parent="WIyWlLk6GJQsqaUBKTNV-1" vertex="1" connectable="0">
          <mxGeometry x="411.00193535526546" y="570.0016143516518" as="geometry" />
        </mxCell>
        <mxCell id="vuFQMqXv7wviXNt7Aknc-3" value="" style="curved=1;endArrow=classic;html=1;rounded=0;entryX=0.5;entryY=0;entryDx=0;entryDy=0;exitX=0;exitY=0.5;exitDx=0;exitDy=0;" parent="WIyWlLk6GJQsqaUBKTNV-1" source="WIyWlLk6GJQsqaUBKTNV-7" target="WIyWlLk6GJQsqaUBKTNV-7" edge="1">
          <mxGeometry width="50" height="50" relative="1" as="geometry">
            <mxPoint x="420" y="670" as="sourcePoint" />
            <mxPoint x="470" y="620" as="targetPoint" />
            <Array as="points">
              <mxPoint x="490" y="630" />
              <mxPoint x="460" y="600" />
              <mxPoint x="500" y="570" />
            </Array>
          </mxGeometry>
        </mxCell>
        <mxCell id="vuFQMqXv7wviXNt7Aknc-4" value="" style="curved=1;endArrow=classic;html=1;rounded=0;entryX=0.5;entryY=0;entryDx=0;entryDy=0;exitX=0.5;exitY=1;exitDx=0;exitDy=0;" parent="WIyWlLk6GJQsqaUBKTNV-1" source="WIyWlLk6GJQsqaUBKTNV-3" target="WIyWlLk6GJQsqaUBKTNV-7" edge="1">
          <mxGeometry width="50" height="50" relative="1" as="geometry">
            <mxPoint x="450" y="720" as="sourcePoint" />
            <mxPoint x="500" y="670" as="targetPoint" />
            <Array as="points">
              <mxPoint x="580" y="550" />
            </Array>
          </mxGeometry>
        </mxCell>
        <mxCell id="TEsDZc2kmZVkNtcbq4qy-5" value="&lt;b&gt;S2 short&lt;/b&gt;" style="edgeLabel;html=1;align=center;verticalAlign=middle;resizable=0;points=[];" parent="WIyWlLk6GJQsqaUBKTNV-1" vertex="1" connectable="0">
          <mxGeometry x="550.0014013876041" y="559.998935621439" as="geometry">
            <mxPoint x="-5" y="7" as="offset" />
          </mxGeometry>
        </mxCell>
        <mxCell id="vuFQMqXv7wviXNt7Aknc-5" value="&lt;div&gt;&lt;b&gt;S1 long&lt;/b&gt;&lt;/div&gt;&lt;b&gt;(C / F)&lt;/b&gt;" style="edgeLabel;html=1;align=center;verticalAlign=middle;resizable=0;points=[];" parent="WIyWlLk6GJQsqaUBKTNV-1" vertex="1" connectable="0">
          <mxGeometry x="471.00193535526546" y="600.0016143516518" as="geometry" />
        </mxCell>
      </root>
    </mxGraphModel>
  </diagram>
</mxfile>
